<svg xmlns="http://www.w3.org/2000/svg" viewBox="0 0 1200 630" width="1200" height="630">
  <defs>
    <style>
      @import url('https://fonts.googleapis.com/css2?family=Outfit:wght@900&amp;display=swap');
    </style>
    <linearGradient id="g" x1="0%" y1="0%" x2="100%" y2="100%">
      <stop offset="0%" stop-color="#0D9488"/>
      <stop offset="50%" stop-color="#14B8A6"/>
      <stop offset="100%" stop-color="#2DD4BF"/>
    </linearGradient>
    <linearGradient id="tomoe-1" x1="0%" y1="0%" x2="100%" y2="100%">
      <stop offset="0%" stop-color="#2DD4BF"/>
      <stop offset="100%" stop-color="#14B8A6"/>
    </linearGradient>
    <linearGradient id="tomoe-2" x1="0%" y1="0%" x2="100%" y2="100%">
      <stop offset="0%" stop-color="#14B8A6"/>
      <stop offset="100%" stop-color="#0D9488"/>
    </linearGradient>
    <linearGradient id="tomoe-3" x1="0%" y1="0%" x2="100%" y2="100%">
      <stop offset="0%" stop-color="#0D9488"/>
      <stop offset="100%" stop-color="#065F56"/>
    </linearGradient>
    <radialGradient id="ambient" cx="50%" cy="50%" r="50%">
      <stop offset="0%" stop-color="#14B8A6" stop-opacity="0.04"/>
      <stop offset="70%" stop-color="#0D9488" stop-opacity="0.015"/>
      <stop offset="100%" stop-color="#08060E" stop-opacity="0"/>
    </radialGradient>
    <filter id="gl">
      <feGaussianBlur stdDeviation="4" result="b"/>
      <feMerge><feMergeNode in="b"/><feMergeNode in="SourceGraphic"/></feMerge>
    </filter>

    <mask id="eye-holes" maskUnits="userSpaceOnUse" x="0" y="0" width="2000" height="2000">
      <rect x="0" y="0" width="2000" height="2000" fill="white"/>
      <circle cx="1353" cy="966" r="80" fill="black"/>
      <circle cx="853" cy="1323" r="80" fill="black"/>
      <circle cx="794" cy="711" r="80" fill="black"/>
    </mask>
  </defs>

  <rect x="0" y="0" width="1200" height="630" fill="#08060E"/>
  <ellipse cx="230" cy="315" rx="520" ry="440" fill="url(#ambient)"/>

  <!-- Rounded square container -->
  <rect x="60" y="175" width="280" height="280" rx="50"
        fill="none" stroke="url(#g)" stroke-width="5" filter="url(#gl)"/>

  <!-- Mitsudomoe: scale 0.14 → 2000*0.14 = 280px. Center (1000,1000) → (200, 315) needs translate(60, 175) -->
  <g transform="translate(60, 175) scale(0.14)" filter="url(#gl)" mask="url(#eye-holes)">
    <path fill="url(#tomoe-1)" d="M1413.862,672.111c-20.912-4.79-42.589-6.939-64.663-6.414c-12.414,0.286-24.923,1.448-37.512,3.549
      c-2.324,0.398-4.615,0.525-6.923,0.987c-142.837,27.803-236.083,166.137-208.248,308.958
      c27.803,142.837,166.137,236.067,308.958,208.264c24.366-4.743,47.124-12.923,68.244-23.57
      c-6.621,544.579-648.505,582.075-648.505,582.075c194.656,8.037,363.944-15.804,494.463-71.984
      c144.97-62.403,236.911-152.848,298.74-251.346C1840.018,1069.541,1703.371,723.708,1413.862,672.111z"/>
    <path fill="url(#tomoe-2)" d="M1077.689,1477.235c6.7-10.456,12.732-21.485,18.032-33.087c0.971-2.149,2.133-4.122,3.056-6.286
      c56.801-133.973-5.729-288.619-139.686-345.435c-133.973-56.801-288.634,5.729-345.435,139.686
      c-9.692,22.854-15.644,46.313-18.62,69.771c-447.8-310.008-119.904-863.15-119.904-863.15
      C359.604,595.64,284.692,749.315,258.305,888.921c-29.347,155.092-5.793,281.887,41.299,388.231
      c168.81,381.164,531.927,461.249,736.594,250.088C1051.875,1512.598,1065.769,1495.84,1077.689,1477.235z"/>
    <path fill="url(#tomoe-3)" d="M556.711,798.333c4.934,11.395,10.679,22.568,17.347,33.453c1.241,1.989,2.228,4.058,3.501,6.048
      c79.289,122.004,242.481,156.651,364.501,77.347c122.004-79.289,156.635-242.481,77.347-364.501
      c-13.528-20.801-29.634-38.848-47.427-54.445C1479.4,298.379,1754.618,879.5,1754.618,879.5
      c-65.474-183.5-150.986-331.525-251.982-431.503c-112.169-111.039-230.449-162.413-344.942-182.831
      c-410.4-73.209-679.857,183.054-619.237,470.797C541.847,757.161,547.974,778.057,556.711,798.333z"/>
  </g>

  <text x="390" y="355" font-family="Outfit, sans-serif" font-weight="900" font-size="96" letter-spacing="-3" fill="#f0f0f0">Assay<tspan fill="url(#g)">Forge</tspan></text>
  <text x="390" y="400" font-family="Outfit, sans-serif" font-weight="900" font-size="22" letter-spacing="4" fill="#14B8A6" opacity="0.7">EXPECTED · ACTUAL · SCORE</text>
</svg>
